<svg width="174" height="34" viewBox="0 0 174 34" fill="none" xmlns="http://www.w3.org/2000/svg">
<path d="M10.3003 31.6544L7.04785 26.021L11.821 17.7764L14.8541 23.0303L32.7593 23.0207L27.6786 31.7322L10.3003 31.6544Z" fill="#67FF64"/>
<path d="M35.957 17.4272L32.7046 23.0605L23.178 23.0493L26.2114 17.7955L17.2505 2.29395L27.3352 2.3382L35.957 17.4272Z" fill="#FCCD2A"/>
<path d="M10.802 2.26367H17.3069L22.0604 10.5197L15.9937 10.5194L7.04949 26.0306L2.04541 17.2749L10.802 2.26367Z" fill="#7476ED"/>
<path fill-rule="evenodd" clip-rule="evenodd" d="M18.0995 0.959431L18.0801 0.925781H10.033L0.5 17.2682L7.04394 28.7182L7.05197 28.7043L9.52585 32.9892L28.4453 33.0738L35.0894 21.6815H35.0452L37.4995 17.4304L28.1132 1.00336L18.0995 0.959431ZM24.3243 11.8578H24.3745L19.6441 3.64234L26.5563 3.67265L34.4135 17.4235L31.9542 21.6833L25.5092 21.6867L27.7563 17.7948L24.3243 11.8578ZM16.4607 3.60184L19.6862 9.18162L15.2203 9.18152L7.57481 22.4404L7.05329 23.3413L3.59016 17.2818L11.5701 3.60184H16.4607ZM13.3596 17.7654L16.7663 11.8576L21.2333 11.8578L24.6657 17.7956L22.4181 21.6884L15.6265 21.6921L13.3596 17.7654ZM8.59603 26.0265L9.89205 23.779L11.8193 20.4499L14.0819 24.369L20.8724 24.3653L20.8614 24.3843L30.4086 24.3956L26.9121 30.3909L11.0749 30.32L8.59603 26.0265Z" fill="black"/>
<path d="M66.5078 10.1211H70.6328L65.7578 26.9258H61.1992L57.8945 15.4766L54.5664 26.9258H50.0312L45.1445 10.1211H49.2812L52.4805 22.9297L55.9492 10.1211H59.8281L63.3086 22.9297L66.5078 10.1211ZM77.0078 13.5312C78.1094 13.5312 79.0703 13.7188 79.8906 14.0938C80.7188 14.4688 81.3242 14.9922 81.707 15.6641L81.8594 13.7305H85.082V26.9258H81.8594L81.707 24.9805C80.9883 26.4023 79.4219 27.1133 77.0078 27.1133C76.1406 27.1133 75.3242 26.9453 74.5586 26.6094C73.8008 26.2656 73.1445 25.8008 72.5898 25.2148C72.0352 24.6289 71.5938 23.9141 71.2656 23.0703C70.9453 22.2188 70.7852 21.3047 70.7852 20.3281C70.7852 19.3516 70.9453 18.4414 71.2656 17.5977C71.5938 16.7461 72.0352 16.0273 72.5898 15.4414C73.1445 14.8477 73.8008 14.3828 74.5586 14.0469C75.3242 13.7031 76.1406 13.5312 77.0078 13.5312ZM77.9219 24.2539C78.9844 24.2539 79.8789 23.8867 80.6055 23.1523C81.3398 22.4102 81.707 21.4688 81.707 20.3281C81.707 19.1797 81.3398 18.2383 80.6055 17.5039C79.8789 16.7695 78.9844 16.4023 77.9219 16.4023C76.8672 16.4023 75.9766 16.7695 75.25 17.5039C74.5312 18.2383 74.1719 19.1797 74.1719 20.3281C74.1719 21.4609 74.5352 22.3984 75.2617 23.1406C75.9883 23.8828 76.875 24.2539 77.9219 24.2539ZM98.5 17.0938L95.125 17.3164C95.0391 16.9336 94.8047 16.6055 94.4219 16.332C94.0469 16.0508 93.5938 15.9102 93.0625 15.9102C92.4219 15.9102 91.9062 16.0352 91.5156 16.2852C91.125 16.5273 90.9297 16.8789 90.9297 17.3398C90.9297 17.6523 91.043 17.918 91.2695 18.1367C91.5039 18.3477 91.7734 18.5117 92.0781 18.6289C92.3906 18.7383 92.8281 18.8594 93.3906 18.9922C94.1875 19.1797 94.8555 19.3555 95.3945 19.5195C95.9336 19.6836 96.4414 19.8789 96.918 20.1055C97.4023 20.3242 97.7734 20.5664 98.0312 20.832C98.2969 21.0977 98.5039 21.4102 98.6523 21.7695C98.8008 22.1289 98.8672 22.5391 98.8516 23C98.8125 24.3125 98.293 25.3242 97.293 26.0352C96.3008 26.7461 94.9141 27.1016 93.1328 27.1016C91.4141 27.1016 90.0352 26.7734 88.9961 26.1172C87.957 25.4609 87.3711 24.5195 87.2383 23.293L90.5898 23.0117C90.707 23.543 91.0078 23.957 91.4922 24.2539C91.9766 24.543 92.5234 24.6875 93.1328 24.6875C93.8047 24.6875 94.3594 24.5508 94.7969 24.2773C95.2344 24.0039 95.4531 23.6211 95.4531 23.1289C95.4531 22.6602 95.1797 22.2734 94.6328 21.9688C94.0938 21.6562 93.3594 21.3945 92.4297 21.1836C91.4688 20.957 90.7148 20.75 90.168 20.5625C89.6211 20.375 89.1289 20.1367 88.6914 19.8477C88.2617 19.5508 87.9609 19.207 87.7891 18.8164C87.625 18.418 87.543 17.918 87.543 17.3164C87.543 16.0898 88.0391 15.1523 89.0312 14.5039C90.0234 13.8555 91.3984 13.5312 93.1562 13.5312C94.7266 13.5312 95.9766 13.832 96.9062 14.4336C97.8438 15.0352 98.375 15.9219 98.5 17.0938ZM101.992 10.7539H105.367V13.7305H108.625V16.3672H105.367V22.3555C105.367 23.4336 105.773 24.0312 106.586 24.1484C107.18 24.2812 107.859 24.2734 108.625 24.125V26.9023C107.742 27.043 106.922 27.1133 106.164 27.1133C104.656 27.1133 103.582 26.7344 102.941 25.9766C102.309 25.2188 101.992 24.0508 101.992 22.4727V16.3672H100.199V13.7305H101.992V10.7539ZM117.133 13.5312C118.18 13.5312 119.148 13.7148 120.039 14.082C120.938 14.4492 121.699 14.9688 122.324 15.6406C122.957 16.3047 123.438 17.1328 123.766 18.125C124.094 19.1094 124.223 20.1953 124.152 21.3828H113.477C113.68 22.3125 114.117 23.0547 114.789 23.6094C115.461 24.1641 116.242 24.4414 117.133 24.4414C117.906 24.4414 118.59 24.2461 119.184 23.8555C119.785 23.457 120.25 22.9023 120.578 22.1914L123.473 23.5742C122.879 24.6758 122.012 25.543 120.871 26.1758C119.73 26.8008 118.484 27.1133 117.133 27.1133C115.836 27.1133 114.648 26.8438 113.57 26.3047C112.5 25.7656 111.637 24.9766 110.98 23.9375C110.324 22.8906 109.996 21.6875 109.996 20.3281C109.996 18.9688 110.324 17.7656 110.98 16.7188C111.637 15.6719 112.5 14.8789 113.57 14.3398C114.648 13.8008 115.836 13.5312 117.133 13.5312ZM117.133 16.2148C116.195 16.2148 115.395 16.4922 114.73 17.0469C114.074 17.5938 113.656 18.3359 113.477 19.2734H120.801C120.613 18.3359 120.191 17.5938 119.535 17.0469C118.879 16.4922 118.078 16.2148 117.133 16.2148Z" fill="white"/>
<path d="M126.332 8.92578H129.707V26.9258H126.332V8.92578ZM139 13.5312C140.047 13.5312 141.016 13.7148 141.906 14.082C142.805 14.4492 143.566 14.9688 144.191 15.6406C144.824 16.3047 145.305 17.1328 145.633 18.125C145.961 19.1094 146.09 20.1953 146.02 21.3828H135.344C135.547 22.3125 135.984 23.0547 136.656 23.6094C137.328 24.1641 138.109 24.4414 139 24.4414C139.773 24.4414 140.457 24.2461 141.051 23.8555C141.652 23.457 142.117 22.9023 142.445 22.1914L145.34 23.5742C144.746 24.6758 143.879 25.543 142.738 26.1758C141.598 26.8008 140.352 27.1133 139 27.1133C137.703 27.1133 136.516 26.8438 135.438 26.3047C134.367 25.7656 133.504 24.9766 132.848 23.9375C132.191 22.8906 131.863 21.6875 131.863 20.3281C131.863 18.9688 132.191 17.7656 132.848 16.7188C133.504 15.6719 134.367 14.8789 135.438 14.3398C136.516 13.8008 137.703 13.5312 139 13.5312ZM139 16.2148C138.062 16.2148 137.262 16.4922 136.598 17.0469C135.941 17.5938 135.523 18.3359 135.344 19.2734H142.668C142.48 18.3359 142.059 17.5938 141.402 17.0469C140.746 16.4922 139.945 16.2148 139 16.2148ZM158.875 17.0938L155.5 17.3164C155.414 16.9336 155.18 16.6055 154.797 16.332C154.422 16.0508 153.969 15.9102 153.438 15.9102C152.797 15.9102 152.281 16.0352 151.891 16.2852C151.5 16.5273 151.305 16.8789 151.305 17.3398C151.305 17.6523 151.418 17.918 151.645 18.1367C151.879 18.3477 152.148 18.5117 152.453 18.6289C152.766 18.7383 153.203 18.8594 153.766 18.9922C154.562 19.1797 155.23 19.3555 155.77 19.5195C156.309 19.6836 156.816 19.8789 157.293 20.1055C157.777 20.3242 158.148 20.5664 158.406 20.832C158.672 21.0977 158.879 21.4102 159.027 21.7695C159.176 22.1289 159.242 22.5391 159.227 23C159.188 24.3125 158.668 25.3242 157.668 26.0352C156.676 26.7461 155.289 27.1016 153.508 27.1016C151.789 27.1016 150.41 26.7734 149.371 26.1172C148.332 25.4609 147.746 24.5195 147.613 23.293L150.965 23.0117C151.082 23.543 151.383 23.957 151.867 24.2539C152.352 24.543 152.898 24.6875 153.508 24.6875C154.18 24.6875 154.734 24.5508 155.172 24.2773C155.609 24.0039 155.828 23.6211 155.828 23.1289C155.828 22.6602 155.555 22.2734 155.008 21.9688C154.469 21.6562 153.734 21.3945 152.805 21.1836C151.844 20.957 151.09 20.75 150.543 20.5625C149.996 20.375 149.504 20.1367 149.066 19.8477C148.637 19.5508 148.336 19.207 148.164 18.8164C148 18.418 147.918 17.918 147.918 17.3164C147.918 16.0898 148.414 15.1523 149.406 14.5039C150.398 13.8555 151.773 13.5312 153.531 13.5312C155.102 13.5312 156.352 13.832 157.281 14.4336C158.219 15.0352 158.75 15.9219 158.875 17.0938ZM172.234 17.0938L168.859 17.3164C168.773 16.9336 168.539 16.6055 168.156 16.332C167.781 16.0508 167.328 15.9102 166.797 15.9102C166.156 15.9102 165.641 16.0352 165.25 16.2852C164.859 16.5273 164.664 16.8789 164.664 17.3398C164.664 17.6523 164.777 17.918 165.004 18.1367C165.238 18.3477 165.508 18.5117 165.812 18.6289C166.125 18.7383 166.562 18.8594 167.125 18.9922C167.922 19.1797 168.59 19.3555 169.129 19.5195C169.668 19.6836 170.176 19.8789 170.652 20.1055C171.137 20.3242 171.508 20.5664 171.766 20.832C172.031 21.0977 172.238 21.4102 172.387 21.7695C172.535 22.1289 172.602 22.5391 172.586 23C172.547 24.3125 172.027 25.3242 171.027 26.0352C170.035 26.7461 168.648 27.1016 166.867 27.1016C165.148 27.1016 163.77 26.7734 162.73 26.1172C161.691 25.4609 161.105 24.5195 160.973 23.293L164.324 23.0117C164.441 23.543 164.742 23.957 165.227 24.2539C165.711 24.543 166.258 24.6875 166.867 24.6875C167.539 24.6875 168.094 24.5508 168.531 24.2773C168.969 24.0039 169.188 23.6211 169.188 23.1289C169.188 22.6602 168.914 22.2734 168.367 21.9688C167.828 21.6562 167.094 21.3945 166.164 21.1836C165.203 20.957 164.449 20.75 163.902 20.5625C163.355 20.375 162.863 20.1367 162.426 19.8477C161.996 19.5508 161.695 19.207 161.523 18.8164C161.359 18.418 161.277 17.918 161.277 17.3164C161.277 16.0898 161.773 15.1523 162.766 14.5039C163.758 13.8555 165.133 13.5312 166.891 13.5312C168.461 13.5312 169.711 13.832 170.641 14.4336C171.578 15.0352 172.109 15.9219 172.234 17.0938Z" fill="#FCCD2A"/>
</svg>
