<svg width="30" height="30" viewBox="0 0 30 30" fill="none" xmlns="http://www.w3.org/2000/svg">
<path d="M27.5 10L28.2071 9.29289L28.9142 10L28.2071 10.7071L27.5 10ZM15 11C14.4477 11 14 10.5523 14 10C14 9.44772 14.4477 9 15 9V11ZM23.2071 4.29289L28.2071 9.29289L26.7929 10.7071L21.7929 5.70711L23.2071 4.29289ZM28.2071 10.7071L23.2071 15.7071L21.7929 14.2929L26.7929 9.29289L28.2071 10.7071ZM27.5 11H15V9H27.5V11Z" fill="#243642"/>
<path d="M2.5 20L1.79289 19.2929L1.08579 20L1.79289 20.7071L2.5 20ZM26.25 21C26.8023 21 27.25 20.5523 27.25 20C27.25 19.4477 26.8023 19 26.25 19L26.25 21ZM6.79289 14.2929L1.79289 19.2929L3.20711 20.7071L8.20711 15.7071L6.79289 14.2929ZM1.79289 20.7071L6.79289 25.7071L8.20711 24.2929L3.20711 19.2929L1.79289 20.7071ZM2.5 21L26.25 21L26.25 19L2.5 19L2.5 21Z" fill="#243642"/>
</svg>
